HIERARCHY
ROOT Hips
{
	OFFSET 53.835800 1.922591 54.359100
	CHANNELS 6 Xposition Yposition Zposition Xrotation Yrotation Zrotation
	JOINT spine
	{
		OFFSET 0.000000 -0.458068 7.965679
		CHANNELS 3 Xrotation Yrotation Zrotation
		JOINT spine1
		{
			OFFSET 0.000000 -0.000002 10.243099
			CHANNELS 3 Xrotation Yrotation Zrotation
			JOINT spine2
			{
				OFFSET 0.000000 -0.000002 9.814751
				CHANNELS 3 Xrotation Yrotation Zrotation
				JOINT Neck
				{
					OFFSET 0.000000 -1.201384 25.198601
					CHANNELS 3 Xrotation Yrotation Zrotation
					JOINT Head
					{
						OFFSET 0.000000 -0.000001 7.613152
						CHANNELS 3 Xrotation Yrotation Zrotation
						End Site
						{
							OFFSET 0.000000 6.077327 18.428101
						}
					}
				}
				JOINT RightShoulder
				{
					OFFSET -4.132698 0.575449 10.599197
					CHANNELS 3 Xrotation Yrotation Zrotation
					JOINT RightArm
					{
						OFFSET 0.000000 -0.000002 13.901802
						CHANNELS 3 Xrotation Yrotation Zrotation
						JOINT RightArmRoll
						{
							OFFSET 0.000000 -0.000001 7.017883
							CHANNELS 3 Xrotation Yrotation Zrotation
							JOINT RightForeArm
							{
								OFFSET 0.000000 -0.000003 20.440605
								CHANNELS 3 Xrotation Yrotation Zrotation
								JOINT RightForeArmRoll
								{
									OFFSET 0.000000 -0.000001 7.875153
									CHANNELS 3 Xrotation Yrotation Zrotation
									JOINT RightHand
									{
										OFFSET 0.000000 -0.000003 15.803696
										CHANNELS 3 Xrotation Yrotation Zrotation
										End Site
										{
											OFFSET 0.000000 0.000000 0.100006
										}
									}
								}
							}
						}
					}
				}
				JOINT LeftShoulder
				{
					OFFSET 4.132698 0.575449 10.599197
					CHANNELS 3 Xrotation Yrotation Zrotation
					JOINT LeftArm
					{
						OFFSET 0.000000 -0.000002 13.901802
						CHANNELS 3 Xrotation Yrotation Zrotation
						JOINT LeftArmRoll
						{
							OFFSET 0.000000 -0.000001 7.017883
							CHANNELS 3 Xrotation Yrotation Zrotation
							JOINT LeftForeArm
							{
								OFFSET 0.000000 -0.000003 20.440605
								CHANNELS 3 Xrotation Yrotation Zrotation
								JOINT LeftForeArmRoll
								{
									OFFSET 0.000000 -0.000001 7.875168
									CHANNELS 3 Xrotation Yrotation Zrotation
									JOINT LeftHand
									{
										OFFSET 0.000000 -0.000003 15.803696
										CHANNELS 3 Xrotation Yrotation Zrotation
										End Site
										{
											OFFSET 0.000000 0.000000 0.100006
										}
									}
								}
							}
						}
					}
				}
			}
		}
	}
	JOINT RightUpLeg
	{
		OFFSET -7.060478 1.086100 -1.294701
		CHANNELS 3 Xrotation Yrotation Zrotation
		JOINT RightUpLegRoll
		{
			OFFSET 0.000000 -0.000003 18.530800
			CHANNELS 3 Xrotation Yrotation Zrotation
			JOINT RightLeg
			{
				OFFSET 0.000000 0.000004 -22.947601
				CHANNELS 3 Xrotation Yrotation Zrotation
				JOINT RightLegRoll
				{
					OFFSET 0.000000 -0.000004 23.022598
					CHANNELS 3 Xrotation Yrotation Zrotation
					JOINT RightFoot
					{
						OFFSET 0.000000 -0.000003 19.162498
						CHANNELS 3 Xrotation Yrotation Zrotation
						JOINT RightToeBase
						{
							OFFSET 0.000000 -0.000003 16.018799
							CHANNELS 3 Xrotation Yrotation Zrotation
							End Site
							{
								OFFSET 0.006790 0.894205 7.757820
							}
						}
					}
				}
			}
		}
	}
	JOINT LeftUpLeg
	{
		OFFSET 7.060478 1.086100 -1.294701
		CHANNELS 3 Xrotation Yrotation Zrotation
		JOINT LeftUpLegRoll
		{
			OFFSET 0.000000 -0.000003 18.530899
			CHANNELS 3 Xrotation Yrotation Zrotation
			JOINT LeftLeg
			{
				OFFSET 0.000000 -0.000004 22.947502
				CHANNELS 3 Xrotation Yrotation Zrotation
				JOINT LeftLegRoll
				{
					OFFSET 0.000000 -0.000004 23.235504
					CHANNELS 3 Xrotation Yrotation Zrotation
					JOINT LeftFoot
					{
						OFFSET 0.000000 -0.000003 18.949600
						CHANNELS 3 Xrotation Yrotation Zrotation
						JOINT LeftToeBase
						{
							OFFSET 0.000000 -0.000003 16.018799
							CHANNELS 3 Xrotation Yrotation Zrotation
							End Site
							{
								OFFSET -0.030430 0.894205 7.757812
							}
						}
					}
				}
			}
		}
	}
}
MOTION
Frames: 10
Frame Time: 0.041667
53.796906 0.465207 55.015102 -0.423538 -1.354863 1.112435 4.478642 -0.502389 -0.687449 12.954587 -1.067429 -1.328452 14.599668 -1.083264 -1.315577 -5.219899 11.872864 0.123158 16.978413 -9.243409 -0.008250 -9.181707 -56.777631 -10.697513 -55.748127 -117.898067 -89.464885 -0.000001 -0.000000 0.000002 87.335450 -1.857302 -5.187200 -0.000006 -0.000003 -2.999991 -5.000221 -7.998782 0.000158 -7.328709 56.210210 8.437623 -40.564002 104.440867 86.824197 -0.000003 -0.000009 0.000003 98.548018 -1.270294 13.305933 -0.000005 -0.000008 3.000009 -5.000182 7.998743 -0.000180 -88.786449 -172.134687 3.503830 -179.999991 0.000005 -1.446998 85.777259 2.933203 0.336363 0.000001 -0.000004 2.096630 68.348098 7.643975 0.258048 27.121805 -7.350413 0.216557 -89.362773 171.926967 -3.994368 -0.000005 -0.000004 -1.366791 -94.005581 -2.839863 0.296673 -0.000001 0.000002 -2.075288 63.324186 -7.177799 -1.831480 30.347654 7.296319 -1.012917 
53.793304 0.478583 55.010597 -0.530793 -1.351002 1.098255 4.470272 -0.501394 -0.687636 12.937976 -1.065278 -1.328951 14.583055 -1.081120 -1.316100 -5.222042 11.800406 0.135637 17.044659 -9.129054 -0.004057 -9.203350 -56.866099 -10.729176 -55.946482 -117.987324 -89.567535 -0.000001 0.000000 -0.000002 87.175521 -1.926331 -5.097394 -0.000005 -0.000005 -2.999990 -5.000223 -7.998782 0.000157 -7.353009 56.304367 8.473870 -40.923884 104.463099 87.084673 -0.000003 -0.000010 0.000005 98.565811 -1.256476 13.290095 -0.000008 -0.000006 3.000009 -5.000178 7.998742 -0.000179 -88.691079 -172.134100 3.517186 -179.999991 0.000005 -1.449006 85.775087 2.936916 0.341058 0.000001 -0.000003 2.097351 68.342183 7.646924 0.251224 27.119083 -7.350440 0.216722 -89.270572 171.897939 -3.998760 -0.000005 -0.000005 -1.367590 -94.007575 -2.843275 0.294495 -0.000002 0.000002 -2.074969 63.310328 -7.178450 -1.831153 30.361437 7.296870 -1.005283 
53.811703 0.478183 54.999500 -0.638192 -1.346257 1.082755 4.462128 -0.500424 -0.687627 12.921764 -1.063105 -1.329037 14.566842 -1.078955 -1.316209 -5.227254 11.721212 0.148529 17.113973 -9.006392 -0.000339 -9.226584 -56.951941 -10.762560 -56.140494 -118.079504 -89.668711 -0.000001 0.000001 -0.000002 87.013632 -1.995656 -5.007728 -0.000004 -0.000002 -2.999989 -5.000220 -7.998780 0.000159 -7.385011 56.396158 8.519184 -41.292882 104.489381 87.360613 -0.000005 -0.000007 -0.000000 98.585263 -1.243613 13.276341 -0.000006 -0.000006 3.000011 -5.000180 7.998742 -0.000181 -88.594780 -172.135397 3.531697 -179.999991 0.000005 -1.451001 85.773249 2.940586 0.345840 0.000001 -0.000003 2.098120 68.337149 7.649992 0.244062 27.115747 -7.350458 0.216876 -89.178249 171.867340 -4.002721 -0.000005 -0.000003 -1.368350 -94.009508 -2.846954 0.291327 -0.000002 0.000002 -2.074641 63.296715 -7.179231 -1.830539 30.374934 7.297416 -0.997818 
53.804604 0.486415 54.986900 -0.745679 -1.340797 1.066181 4.454219 -0.499470 -0.687447 12.906150 -1.060910 -1.328754 14.551124 -1.076756 -1.315956 -5.235040 11.636696 0.161658 17.185640 -8.877230 0.002838 -9.251198 -57.035064 -10.797389 -56.329895 -118.174444 -89.768022 0.000000 0.000000 -0.000001 86.850220 -2.065053 -4.918084 -0.000007 -0.000005 -2.999990 -5.000225 -7.998777 0.000157 -7.423830 56.485541 8.572485 -41.667402 104.520343 87.647603 -0.000002 -0.000008 0.000004 98.606014 -1.231326 13.263661 -0.000004 -0.000005 3.000011 -5.000177 7.998741 -0.000178 -88.497634 -172.138266 3.547642 -179.999991 0.000004 -1.454006 85.771849 2.944188 0.350305 0.000000 -0.000004 2.098919 68.332901 7.653170 0.236467 27.112007 -7.350468 0.217032 -89.085782 171.835388 -4.006152 -0.000005 -0.000004 -1.369080 -94.011455 -2.850959 0.288130 -0.000002 0.000002 -2.074310 63.283390 -7.179986 -1.830103 30.388014 7.297986 -0.990477 
53.782906 0.501400 54.989498 -0.853202 -1.334782 1.048784 4.446529 -0.498521 -0.687117 12.890936 -1.058674 -1.328153 14.535913 -1.074506 -1.315384 -5.244891 11.548059 0.174830 17.259038 -8.743388 0.005448 -9.276957 -57.115504 -10.833399 -56.512497 -118.272266 -89.862852 -0.000002 0.000001 -0.000003 86.685312 -2.134603 -4.828671 -0.000006 -0.000004 -2.999990 -5.000221 -7.998782 0.000157 -7.468590 56.572749 8.632745 -42.046368 104.555873 87.943774 -0.000006 -0.000006 0.000002 98.627775 -1.219579 13.253014 -0.000009 -0.000002 3.000011 -5.000180 7.998743 -0.000180 -88.399949 -172.142460 3.563901 -179.999991 0.000005 -1.456000 85.770818 2.947781 0.354665 0.000002 -0.000003 2.099750 68.329206 7.656410 0.228545 27.107875 -7.350497 0.217178 -88.993171 171.802371 -4.009449 -0.000005 -0.000003 -1.369790 -94.013196 -2.855237 0.284946 -0.000002 0.000002 -2.073970 63.270119 -7.180871 -1.829492 30.400793 7.298569 -0.983224 
53.786602 0.511169 54.979401 -0.960694 -1.328353 1.030787 4.439046 -0.497569 -0.686661 12.876124 -1.056377 -1.327286 14.521097 -1.072197 -1.314548 -5.256268 11.456309 0.187830 17.333664 -8.606668 0.007492 -9.303606 -57.193047 -10.870251 -56.691349 -118.371768 -89.956166 0.000000 0.000000 0.000000 86.519256 -2.204146 -4.739481 -0.000005 -0.000002 -2.999989 -5.000220 -7.998785 0.000158 -7.518433 56.657836 8.698910 -42.428783 104.595830 88.247540 -0.000006 -0.000010 0.000005 98.650451 -1.208332 13.243402 -0.000008 -0.000006 3.000012 -5.000179 7.998746 -0.000179 -88.301813 -172.147610 3.580760 -179.999991 0.000005 -1.457995 85.770148 2.951372 0.359118 0.000000 -0.000003 2.100590 68.325743 7.659695 0.220618 27.103429 -7.350518 0.217315 -88.900451 171.768725 -4.012419 -0.000005 -0.000004 -1.370470 -94.014706 -2.859678 0.281762 -0.000002 0.000002 -2.073640 63.256943 -7.181771 -1.828881 30.413374 7.299155 -0.976011 
53.787304 0.517540 54.960197 -1.068104 -1.321691 1.012440 4.431765 -0.496604 -0.686101 12.861715 -1.054001 -1.326208 14.506680 -1.069818 -1.313492 -5.268670 11.362753 0.200479 17.408986 -8.468874 0.008995 -9.330876 -57.267643 -10.907654 -56.864132 -118.472992 -90.045293 -0.000000 -0.000001 0.000001 86.352080 -2.273746 -4.650512 -0.000004 -0.000006 -2.999992 -5.000222 -7.998784 0.000155 -7.572425 56.740854 8.769889 -42.810922 104.640800 88.554284 -0.000003 -0.000009 -0.000000 98.673742 -1.197585 13.232818 -0.000007 -0.000004 3.000012 -5.000179 7.998745 -0.000182 -88.203437 -172.153402 3.597619 -179.999991 0.000005 -1.460999 85.769950 2.954944 0.363354 -0.000000 -0.000003 2.101430 68.322307 7.663057 0.212504 27.098876 -7.350536 0.217452 -88.807581 171.734684 -4.015563 -0.000005 -0.000004 -1.371150 -94.015894 -2.864213 0.278566 -0.000002 0.000002 -2.073299 63.243870 -7.182647 -1.828259 30.425856 7.299753 -0.968827 
53.780502 0.542413 54.963501 -1.175369 -1.314964 0.993973 4.424685 -0.495616 -0.685462 12.847701 -1.051554 -1.324957 14.492664 -1.067349 -1.312269 -5.281580 11.268689 0.212602 17.484483 -8.331814 0.009966 -9.358501 -57.339083 -10.945251 -57.029231 -118.576360 -90.128171 0.000001 -0.000000 0.000001 86.184208 -2.343175 -4.562166 -0.000005 -0.000006 -2.999992 -5.000222 -7.998782 0.000158 -7.629653 56.821857 8.844577 -43.194386 104.689916 88.864975 -0.000004 -0.000007 0.000002 98.697299 -1.186954 13.224268 -0.000009 -0.000003 3.000014 -5.000180 7.998746 -0.000179 -88.105014 -172.159467 3.614073 -179.999991 0.000005 -1.462994 85.770258 2.958523 0.367480 0.000001 -0.000003 2.102241 68.318755 7.666416 0.204295 27.094341 -7.350554 0.217592 -88.714588 171.700574 -4.018664 -0.000005 -0.000005 -1.371830 -94.016693 -2.868789 0.275369 -0.000002 0.000002 -2.072970 63.230715 -7.183591 -1.827555 30.438127 7.300367 -0.961591 
53.778603 0.565002 54.966499 -1.282435 -1.308312 0.975634 4.417784 -0.494595 -0.684765 12.833987 -1.048998 -1.323594 14.479058 -1.064780 -1.310942 -5.294496 11.175233 0.224012 17.559448 -8.197307 0.010442 -9.386244 -57.407398 -10.982772 -57.189300 -118.680465 -90.207470 0.000001 -0.000001 -0.000000 86.015659 -2.412506 -4.474229 -0.000007 -0.000004 -2.999989 -5.000224 -7.998782 0.000157 -7.689197 56.900889 8.921867 -43.578103 104.743007 89.177702 -0.000003 -0.000009 0.000003 98.720993 -1.176577 13.214720 -0.000005 -0.000006 3.000011 -5.000180 7.998744 -0.000179 -88.006625 -172.165600 3.630710 -179.999991 0.000005 -1.465002 85.770968 2.962167 0.371694 0.000001 -0.000003 2.103030 68.314787 7.669788 0.196220 27.089789 -7.350574 0.217721 -88.621493 171.666874 -4.022024 -0.000005 -0.000004 -1.372510 -94.016973 -2.873214 0.272228 -0.000002 0.000002 -2.072640 63.217560 -7.184575 -1.826761 30.450513 7.300974 -0.954309 
53.773304 0.572825 54.952702 -1.389240 -1.301937 0.957659 4.411075 -0.493531 -0.684035 12.820573 -1.046343 -1.322166 14.465641 -1.062105 -1.309539 -5.306877 11.083577 0.234527 17.633424 -8.067141 0.010472 -9.413835 -57.472422 -11.019888 -57.342498 -118.785555 -90.280894 0.000001 -0.000000 0.000001 85.846790 -2.481574 -4.386892 -0.000004 -0.000001 -2.999991 -5.000223 -7.998782 0.000158 -7.750141 56.978118 9.000672 -43.958742 104.800695 89.488578 -0.000003 -0.000010 0.000003 98.744496 -1.166106 13.207166 -0.000006 -0.000006 3.000011 -5.000179 7.998745 -0.000178 -87.908407 -172.171297 3.647134 -179.999991 0.000005 -1.467994 85.772286 2.965780 0.375694 0.000000 -0.000003 2.103770 68.310272 7.673103 0.188273 27.085342 -7.350592 0.217836 -88.528240 171.633775 -4.025748 -0.000005 -0.000005 -1.373210 -94.016646 -2.877639 0.269075 -0.000002 0.000002 -2.072311 63.204194 -7.185518 -1.826174 30.462797 7.301617 -0.946900 
